{
  "accessors": [
    {
      "bufferView": 2,
      "componentType": 5126,
      "count": 14027,
      "max": [
        1.0,
        0.5179129838943481,
        0.7196530103683472
      ],
      "min": [
        -1.0,
        -0.5179129838943481,
        -0.7196530103683472
      ],
      "type": "VEC3"
    },
    {
      "bufferView": 2,
      "byteOffset": 168324,
      "componentType": 5126,
      "count": 14027,
      "max": [
        0.9999977350234985,
        0.9999170899391174,
        0.9999977350234985
      ],
      "min": [
        -0.9998022317886353,
        -0.9997814893722534,
        -0.9999977350234985
      ],
      "type": "VEC3"
    },
    {
      "bufferView": 3,
      "componentType": 5126,
      "count": 14027,
      "max": [
        0.999705970287323,
        0.9980490207672119,
        0.9999880194664001,
        1.0
      ],
      "min": [
        -0.9999120235443115,
        -0.9995759725570679,
        -0.9999849796295166,
        1.0
      ],
      "type": "VEC4"
    },
    {
      "bufferView": 1,
      "componentType": 5126,
      "count": 14027,
      "max": [
        0.9990580081939697,
        0.9958879947662354
      ],
      "min": [
        0.0009420000133104622,
        0.0009420000133104622
      ],
      "type": "VEC2"
    },
    {
      "bufferView": 0,
      "componentType": 5125,
      "count": 63780,
      "type": "SCALAR"
    }
  ],
  "asset": {
    "extras": {
      "author": "d880 (https://sketchfab.com/distance880)",
      "license": "CC-BY-NC-4.0 (http://creativecommons.org/licenses/by-nc/4.0/)",
      "source": "https://sketchfab.com/3d-models/space-rocks-a9883c483bc1453589f402a623ebe83f",
      "title": "Space Rocks"
    },
    "generator": "Sketchfab-12.66.0",
    "version": "2.0"
  },
  "bufferViews": [
    {
      "buffer": 0,
      "byteLength": 255120,
      "name": "floatBufferViews",
      "target": 34963
    },
    {
      "buffer": 0,
      "byteLength": 112216,
      "byteOffset": 255120,
      "byteStride": 8,
      "name": "floatBufferViews",
      "target": 34962
    },
    {
      "buffer": 0,
      "byteLength": 336648,
      "byteOffset": 367336,
      "byteStride": 12,
      "name": "floatBufferViews",
      "target": 34962
    },
    {
      "buffer": 0,
      "byteLength": 224432,
      "byteOffset": 703984,
      "byteStride": 16,
      "name": "floatBufferViews",
      "target": 34962
    }
  ],
  "buffers": [
    {
      "byteLength": 928416,
      "uri": "scene.bin"
    }
  ],
  "images": [
    {
      "uri": "textures/SpaceRocks_baseColor.jpeg"
    },
    {
      "uri": "textures/SpaceRocks_metallicRoughness.png"
    },
    {
      "uri": "textures/SpaceRocks_emissive.png"
    },
    {
      "uri": "textures/SpaceRocks_normal.jpeg"
    }
  ],
  "materials": [
    {
      "doubleSided": true,
      "emissiveFactor": [
        1.0,
        1.0,
        1.0
      ],
      "emissiveTexture": {
        "index": 2
      },
      "name": "SpaceRocks",
      "normalTexture": {
        "index": 3
      },
      "occlusionTexture": {
        "index": 1
      },
      "pbrMetallicRoughness": {
        "baseColorFactor": [
          0.64,
          0.64,
          0.64,
          1.0
        ],
        "baseColorTexture": {
          "index": 0
        },
        "metallicRoughnessTexture": {
          "index": 1
        }
      }
    }
  ],
  "meshes": [
    {
      "name": "defaultMaterial",
      "primitives": [
        {
          "attributes": {
            "NORMAL": 1,
            "POSITION": 0,
            "TANGENT": 2,
            "TEXCOORD_0": 3
          },
          "indices": 4,
          "material": 0,
          "mode": 4
        }
      ]
    }
  ],
  "nodes": [
    {
      "children": [
        1
      ],
      "matrix": [
        1.0,
        0.0,
        0.0,
        0.0,
        0.0,
        2.220446049250313e-16,
        -1.0,
        0.0,
        0.0,
        1.0,
        2.220446049250313e-16,
        0.0,
        0.0,
        0.0,
        0.0,
        1.0
      ],
      "name": "Sketchfab_model"
    },
    {
      "children": [
        2
      ],
      "matrix": [
        1.0,
        0.0,
        0.0,
        0.0,
        0.0,
        -4.371139006309477e-08,
        0.999999999999999,
        0.0,
        0.0,
        -0.999999999999999,
        -4.371139006309477e-08,
        0.0,
        0.0,
        0.0,
        0.0,
        1.0
      ],
      "name": "Collada visual scene group"
    },
    {
      "children": [
        3
      ],
      "name": "Mball.000_Mesh.008"
    },
    {
      "mesh": 0,
      "name": "defaultMaterial"
    }
  ],
  "samplers": [
    {
      "magFilter": 9729,
      "minFilter": 9987,
      "wrapS": 10497,
      "wrapT": 10497
    }
  ],
  "scene": 0,
  "scenes": [
    {
      "name": "Sketchfab_Scene",
      "nodes": [
        0
      ]
    }
  ],
  "textures": [
    {
      "sampler": 0,
      "source": 0
    },
    {
      "sampler": 0,
      "source": 1
    },
    {
      "sampler": 0,
      "source": 2
    },
    {
      "sampler": 0,
      "source": 3
    }
  ]
}
